# xmcd CD database file
#
# Track frame offsets:
#	150
#	11647
#	25402
#	37845
#	49965
#	64540
#	78805
#	91307
#	104737
#	118242
#	132162
#	145867
#	159405
#	172290
#	186207
#	199790
#	211590
#	225460
#	236852
#	252432
#	266532
#	281245
#	293327
#	307450
#	321680
#
# Disc length: 4474 seconds
#
# Revision: 0
# Processed by: cddbd v1.5.2PL0 Copyright (c) Steve Scherf et al.
# Submitted via: CDex 1.51
#
DISCID=77117819
DTITLE=Dick Haymes - The Ultimate Collection
DYEAR=2001
DGENRE=Jazz
TTITLE0=It's A Grand Night For Singing
TTITLE1=The More I See You
TTITLE2=You'll Never Know
TTITLE3=I'll Get By
TTITLE4=Little White Lies
TTITLE5=It Had To Be You
TTITLE6=Love Letters
TTITLE7=I'll Buy That Dream
TTITLE8=How Are Things In Glocca Morra
TTITLE9=Laura
TTITLE10=Mam'selle
TTITLE11=When I'm Not Near The Girl I Love
TTITLE12=That's For Me
TTITLE13='Till The End Of Time
TTITLE14=I'm Always Chasing Rainbows
TTITLE15=Room Full Of Roses
TTITLE16=How Blue The Night
TTITLE17=It's Magic
TTITLE18=Long Ago (And Far Away)
TTITLE19=It Might As Well Be Spring
TTITLE20=It Can't Be Wrong
TTITLE21=Put Your Arms Around Me, Honey
TTITLE22=I Wish I Knew
TTITLE23=For You, For Me, For Evermore
TTITLE24=In Love In Vain
EXTD=YEAR: 2001
EXTT0=
EXTT1=
EXTT2=
EXTT3=
EXTT4=
EXTT5=
EXTT6=
EXTT7=
EXTT8=
EXTT9=
EXTT10=
EXTT11=
EXTT12=
EXTT13=
EXTT14=
EXTT15=
EXTT16=
EXTT17=
EXTT18=
EXTT19=
EXTT20=
EXTT21=
EXTT22=
EXTT23=
EXTT24=
PLAYORDER=
